<svg xmlns="http://www.w3.org/2000/svg" version="1.1" width="3996" height="343">
<path d="M0 0 C1.7978069 1.20693181 3.59598279 2.41331416 5.39453125 3.61914062 C8.05459427 5.40276862 10.71364676 7.18778669 13.36907959 8.978302 C17.67756417 11.88297498 21.99736176 14.76667113 26.34863281 17.60693359 C27.17605988 18.14960373 28.00348694 18.69227386 28.85598755 19.25138855 C30.41228394 20.27052609 31.97220046 21.28416526 33.53634644 22.29121399 C39.76041401 26.37798191 42.33463521 30.18540558 45.06640625 37.125 C45.34620331 37.8210585 45.62600037 38.517117 45.91427612 39.23426819 C46.52332489 40.75125634 47.12966305 42.26933491 47.73361206 43.7883606 C49.0410701 47.07677004 50.3613231 50.35999367 51.68086243 53.64356995 C52.38601575 55.39854574 53.09049941 57.15379075 53.7943573 58.9092865 C58.36168243 70.2925753 63.02751502 81.63558456 67.68386841 92.98266602 C70.17204931 99.04777559 72.65341291 105.11560847 75.125 111.1875 C75.50424622 112.11842468 75.88349243 113.04934937 76.27423096 114.00848389 C77.4069918 116.79437333 78.53442059 119.58235917 79.66015625 122.37109375 C80.00872177 123.22751968 80.35728729 124.08394562 80.71641541 124.96632385 C81.0330867 125.75401657 81.349758 126.54170929 81.67602539 127.35327148 C81.9566835 128.04742661 82.23734161 128.74158173 82.52650452 129.45677185 C83.125 131.1875 83.125 131.1875 83.125 133.1875 C84.35839111 133.16131592 85.59178223 133.13513184 86.86254883 133.1081543 C91.53488276 133.01615153 96.20714092 132.95971791 100.88012695 132.9128418 C102.88449662 132.88803326 104.88877923 132.8541748 106.89282227 132.81030273 C119.34696177 132.54492247 130.13880198 133.48920891 142.08862305 137.0456543 C146.7989075 138.43886567 151.2187292 138.92876017 156.125 138.75 C157.40201782 138.72510498 157.40201782 138.72510498 158.70483398 138.69970703 C201.73850933 137.21353018 245.71008328 122.89839339 286.75 110.75 C287.7862149 110.44513672 288.82242981 110.14027344 289.89004517 109.82617188 C292.83809297 108.95618201 295.78281633 108.07582859 298.7265625 107.19140625 C299.6050032 106.93239029 300.48344391 106.67337433 301.38850403 106.4065094 C307.49107501 104.55112693 312.18476658 102.45953274 316.5625 97.6875 C324.44898316 89.66834703 333.16331383 82.82635809 343.1875 77.6875 C343.78691406 77.37361328 344.38632812 77.05972656 345.00390625 76.73632812 C355.88084648 71.47069075 367.30766724 70.77147742 379.19140625 70.984375 C380.69412273 70.99950011 382.19685614 71.01301006 383.69960022 71.02508545 C387.01967462 71.05339572 390.33954172 71.08980152 393.65948486 71.13061523 C399.50715856 71.19755005 405.3546289 71.21525089 411.20263672 71.22851562 C421.08768691 71.25229003 430.9722893 71.30175124 440.85712242 71.37145233 C446.5580016 71.41109959 452.25871556 71.44327192 457.9597168 71.45849609 C463.59591997 71.4737837 469.23171777 71.50835744 474.86773872 71.55580902 C476.97518955 71.57040502 479.0826977 71.57852813 481.1901989 71.57938385 C504.4864529 71.59842424 528.02008684 74.59219952 547.125 89.1875 C548.48458647 90.61987504 549.83879159 92.05737766 551.1875 93.5 C556.02395447 98.00826649 560.73633716 98.09619553 567.04370117 98.54125977 C588.76888666 100.12959981 606.6305492 111.41848605 621.125 127.1875 C624.125 130.84896993 624.125 130.84896993 624.125 133.1875 C625.424375 133.125625 626.72375 133.06375 628.0625 133 C656.5210006 133.12024719 682.86745304 147.35729769 703.4453125 166.17578125 C703.96448242 166.64185791 704.48365234 167.10793457 705.01855469 167.58813477 C706.39595437 168.84273068 707.74238836 170.13109365 709.0859375 171.421875 C717.34681795 176.22125542 727.81454703 172.10229251 736.4375 169.9375 C738.45970567 169.45100307 740.48336858 168.97091386 742.50714111 168.49098206 C746.69126909 167.49835935 750.8733106 166.49765127 755.04736328 165.46337891 C785.04266178 158.12766471 818.15688528 159.94506064 845.1875 175.625 C846.00347656 176.13933594 846.81945313 176.65367187 847.66015625 177.18359375 C851.05664617 178.56695018 852.60514514 178.25784048 856.125 177.1875 C859.23194077 175.63344465 862.1362139 173.80595213 865.0625 171.9375 C866.3935376 171.09650757 866.3935376 171.09650757 867.75146484 170.23852539 C870.30496479 168.61096547 872.84881796 166.96959767 875.38677979 165.31793213 C876.59011877 164.53535404 877.79458185 163.75450272 878.99993896 162.97503662 C883.08467311 160.33356078 887.15310229 157.66908579 891.20559692 154.97839355 C892.54810113 154.08965661 893.89394334 153.2059375 895.24337769 152.32775879 C904.59771265 146.22417967 911.86171691 139.64344885 919.125 131.1875 C928.41588477 121.24838913 938.13077758 112.19984042 949.125 104.1875 C949.75954102 103.71924805 950.39408203 103.25099609 951.04785156 102.76855469 C961.86466211 94.81642178 973.1196591 87.64777201 984.60742188 80.70849609 C986.22064932 79.73386392 987.83155348 78.75536951 989.43945312 77.77197266 C1013.33876428 63.15564594 1036.27034402 53.73271354 1064.6875 53.9375 C1065.44480408 53.94026947 1066.20210815 53.94303894 1066.98236084 53.94589233 C1082.26847937 54.00937451 1097.55088314 54.41573822 1112.82931519 54.88122559 C1115.4144362 54.95954003 1117.99966425 55.03440766 1120.58499146 55.10559082 C1157.3990217 56.14525363 1157.3990217 56.14525363 1173.4375 61.875 C1174.53384766 62.25519287 1174.53384766 62.25519287 1175.65234375 62.64306641 C1187.08770591 66.79436186 1196.97028846 73.19986262 1206.125 81.1875 C1207.35476563 82.25291016 1207.35476563 82.25291016 1208.609375 83.33984375 C1213.87027356 87.98806003 1218.83777255 92.87790259 1223.77734375 97.86328125 C1226.35621643 100.41640811 1229.01291491 102.81828204 1231.7734375 105.171875 C1233.63339306 106.76612262 1235.46494021 108.38109146 1237.2890625 110.015625 C1248.32673742 119.8412188 1259.98736971 128.89779474 1272.36328125 136.98828125 C1280.33302733 142.21152726 1287.14007674 147.70118682 1293.63964844 154.71069336 C1303.79968454 165.52295337 1314.7495622 170.44940929 1328.44628906 175.48510742 C1333.39907344 177.30710121 1338.33077539 179.18478693 1343.265625 181.0546875 C1344.22480835 181.41645081 1345.1839917 181.77821411 1346.17224121 182.15093994 C1353.23750763 184.82331766 1360.21446549 187.63360374 1367.125 190.6875 C1367.99278076 191.070271 1368.86056152 191.45304199 1369.75463867 191.84741211 C1374.00692702 193.74413107 1378.22826759 195.70161678 1382.44140625 197.68359375 C1383.76495117 198.29847656 1383.76495117 198.29847656 1385.11523438 198.92578125 C1386.73630826 199.68154387 1388.3518273 200.4494522 1389.95898438 201.234375 C1400.88794995 206.34029592 1412.42283976 207.73032011 1424.375 207.625 C1425.64239014 207.61742676 1426.90978027 207.60985352 1428.21557617 207.60205078 C1474.32991486 206.99967275 1577.66467364 205.28203949 1612.296875 171.1015625 C1612.90015625 170.46992188 1613.5034375 169.83828125 1614.125 169.1875 C1622.25348289 161.20313914 1631.2112786 154.64185596 1641.98046875 150.73046875 C1661.14919101 143.67181271 1673.98286653 126.22108921 1684.80908203 109.5534668 C1699.73332301 86.59153078 1718.04285423 73.97332346 1744.125 66.1875 C1745.515359 65.76081477 1746.90548273 65.3333624 1748.29541016 64.90527344 C1767.54302223 59.01327337 1785.78425451 53.78862898 1806.125 56.1875 C1807.30570068 56.32381836 1807.30570068 56.32381836 1808.51025391 56.46289062 C1839.98820123 60.68081311 1871.62931449 80.45316268 1898.76171875 96.11328125 C1904.14217363 99.21787906 1909.59509109 102.17707828 1915.0625 105.125 C1924.80466995 110.39976124 1934.3751681 115.94209211 1943.92578125 121.5546875 C1949.19697943 124.65165237 1954.49180417 127.70559159 1959.79418945 130.7487793 C1969.47858926 136.30824837 1979.11277426 141.94116264 1988.6875 147.6875 C1990.21866455 148.59483887 1990.21866455 148.59483887 1991.78076172 149.52050781 C1997.18978131 152.74184913 2002.47723752 156.07048468 2007.6875 159.60546875 C2008.77603271 160.31960937 2009.86456543 161.03375 2010.98608398 161.76953125 C2013.05217181 163.12833102 2015.0935067 164.52591006 2017.10180664 165.96875 C2021.45826442 168.78438731 2024.46285725 170.33473705 2029.72167969 169.86889648 C2033.18544036 169.11373947 2036.53055903 168.03227763 2039.88998413 166.90841675 C2043.81874823 165.64117213 2047.82327144 164.66300281 2051.8203125 163.63671875 C2053.52576965 163.18624697 2055.23084241 162.73431765 2056.93554688 162.28100586 C2162.51119736 134.31219835 2162.51119736 134.31219835 2209.13183594 131.99414062 C2219.72701891 131.32798905 2226.89555354 125.92265117 2233.90234375 118.23828125 C2235.05825997 116.90412852 2236.21056585 115.56683984 2237.359375 114.2265625 C2258.17755567 90.1843273 2289.5474019 83.62182342 2319.91947174 81.36911011 C2330.38124147 80.77639559 2340.87938515 80.98307483 2351.35341597 81.05057526 C2354.95267905 81.07094055 2358.5519672 81.07763565 2362.15127563 81.08544922 C2372.03725601 81.10925944 2381.92312383 81.153352 2391.80902863 81.19790649 C2400.88389399 81.23860163 2409.95872025 81.27465299 2419.03365862 81.29433632 C2422.59050918 81.30253625 2426.1472332 81.31486419 2429.70402145 81.33782959 C2454.57653997 81.49666971 2480.07537176 81.42314729 2503.9765625 73.62109375 C2509.51612303 71.92249479 2514.92577379 71.52086095 2520.6875 71.1875 C2529.63030614 70.58245866 2538.48567818 69.70901094 2547.375 68.5625 C2555.6758092 67.5276679 2563.74970219 66.61201941 2572.125 67.1875 C2572.77968262 67.23003906 2573.43436523 67.27257812 2574.10888672 67.31640625 C2605.84709617 69.54615661 2633.34484048 79.45711139 2661.2265625 94.35546875 C2691.43308026 110.42657244 2726.10747198 118.25995529 2759.0625 126.5625 C2759.87450867 126.76787384 2760.68651733 126.97324768 2761.52313232 127.18484497 C2771.39670001 129.67137714 2781.27892246 131.91715052 2791.29722595 133.74813843 C2799.04655655 135.21327873 2805.912614 137.99344334 2813.125 141.1875 C2839.06149747 152.44565 2866.60512972 155.53437263 2894.5625 157.875 C2895.28606689 157.93584778 2896.00963379 157.99669556 2896.75512695 158.05938721 C2907.8991999 158.9810846 2919.04834467 159.56480608 2930.21890259 160.05343628 C2933.27791735 160.19455436 2936.33544886 160.35563046 2939.39331055 160.51977539 C2944.89228069 160.81064966 2950.391503 161.04071877 2955.89453125 161.23950195 C2958.15025841 161.33059105 2960.40528229 161.44093813 2962.65917969 161.56958008 C2975.76436144 162.92260678 2975.76436144 162.92260678 2987.87792969 159.11303711 C2990.58375997 156.62239091 2992.83593903 154.05785248 2995.125 151.1875 C3005.12201779 143.03058574 3017.03678627 137.39425821 3029.69140625 135.15625 C3032.33439823 134.4185377 3032.33439823 134.4185377 3033.27734375 131.85546875 C3033.55707031 130.97503906 3033.83679687 130.09460938 3034.125 129.1875 C3044.14150838 113.84972154 3057.71900063 103.77708487 3075.27587891 98.98144531 C3081.81584227 97.63246898 3088.28743526 97.62745095 3094.9375 97.75 C3095.64076416 97.75781494 3096.34402832 97.76562988 3097.06860352 97.77368164 C3107.65466136 97.89737579 3117.88633479 98.2575891 3128.125 101.1875 C3128.99398926 101.435 3129.86297852 101.6825 3130.75830078 101.9375 C3153.05626589 108.491486 3173.60940521 118.40262376 3193.69067383 129.97290039 C3199.79383199 133.46660571 3205.85123656 136.48735292 3212.41113281 139.03295898 C3221.09907275 142.72900684 3228.16472331 148.70160043 3235.10546875 154.953125 C3242.12665302 160.1486197 3248.96884467 160.60935229 3257.5 161 C3266.87965175 161.56291879 3275.64261977 163.0185433 3284.75 165.3125 C3294.21063761 167.64976061 3302.34280012 169.200878 3312.125 168.1875 C3312.83172852 168.11885742 3313.53845703 168.05021484 3314.26660156 167.97949219 C3326.36551839 166.73318579 3338.2456966 164.23164538 3350.125 161.6875 C3350.83316864 161.53820038 3351.54133728 161.38890076 3352.27096558 161.2350769 C3354.30807895 160.8025604 3356.34178658 160.35670461 3358.375 159.90625 C3360.14617188 159.51856445 3360.14617188 159.51856445 3361.953125 159.12304688 C3367.00372269 157.63336935 3370.34462644 155.12952805 3374.0625 151.5 C3379.80796767 146.32245335 3386.30004015 142.71970073 3393.125 139.1875 C3394.02822998 138.71642822 3394.02822998 138.71642822 3394.94970703 138.23583984 C3427.61834744 121.45394449 3463.57421395 112.58708327 3499.0625 104.0625 C3500.08624725 103.81612793 3501.10999451 103.56975586 3502.1647644 103.31591797 C3505.07584888 102.61840926 3507.9886106 101.92853877 3510.90234375 101.2421875 C3511.77677124 101.0333493 3512.65119873 100.82451111 3513.55212402 100.60934448 C3514.76563538 100.3268132 3514.76563538 100.3268132 3516.00366211 100.03857422 C3516.70639755 99.87332245 3517.409133 99.70807068 3518.13316345 99.53781128 C3520.125 99.1875 3520.125 99.1875 3524.125 99.1875 C3527.18140126 110.32021749 3529.90199397 121.50773547 3532.48828125 132.7578125 C3532.68444723 133.60938808 3532.88061321 134.46096367 3533.08272362 135.33834457 C3534.11564027 139.82381069 3535.14524377 144.31002216 3536.17211914 148.796875 C3537.23040008 153.41768989 3538.30075338 158.03562415 3539.37365437 162.65306282 C3540.2013815 166.22542705 3541.02009535 169.79981302 3541.83635521 173.37481308 C3542.22727453 175.07962051 3542.6216099 176.78364846 3543.01946449 178.48685074 C3543.57245164 180.85780878 3544.11257467 183.23135362 3544.6496582 185.60595703 C3544.81528259 186.30312332 3544.98090698 187.00028961 3545.15155029 187.71858215 C3545.99681847 191.52560727 3546.22477176 194.4247963 3545.125 198.1875 C3544.2653363 198.38968895 3544.2653363 198.38968895 3543.38830566 198.59596252 C3537.28406867 200.032996 3531.18202918 201.47911125 3525.08105469 202.92993164 C3522.82051081 203.46632376 3520.55946136 204.00059079 3518.29785156 204.5324707 C3497.94541188 209.32154656 3477.57521393 214.37887446 3458 221.8125 C3457.01386719 222.16828125 3456.02773437 222.5240625 3455.01171875 222.890625 C3448.10553119 225.48161035 3443.48482594 228.17216685 3438.875 234.0625 C3417.00650345 261.05210017 3358.24357256 265.68833194 3326.72583008 269.23999023 C3305.46449271 271.36552523 3285.27253775 270.49985568 3264.64331055 264.93920898 C3258.28176655 263.29718409 3252.25553305 262.70102882 3245.70776367 262.4909668 C3221.01783679 261.63244743 3193.9059382 252.95429214 3175.15625 236.59765625 C3172.51163161 234.49491199 3170.33971474 233.33523769 3167.23242188 232.11767578 C3162.22743173 229.90856869 3157.58464033 226.89414646 3152.875 224.125 C3131.8084678 211.42568552 3131.8084678 211.42568552 3109.125 202.1875 C3108.54234375 202.94933594 3107.9596875 203.71117187 3107.359375 204.49609375 C3095.97993546 218.82774637 3081.81764238 228.75173181 3063.6875 232.1875 C3057.72754623 233.3369678 3053.90290482 234.14987036 3049.99609375 239.0625 C3038.18127004 252.48058789 3018.85940104 260.88304044 3001.32128906 262.54876709 C2997.37720303 262.67813646 2993.44490731 262.69170769 2989.5 262.6484375 C2988.03557419 262.64684581 2986.57114594 262.64683044 2985.10671997 262.64826965 C2981.24112998 262.64630338 2977.37619097 262.61813524 2973.51078033 262.58257675 C2971.10774978 262.56235484 2968.70478848 262.54944054 2966.30169678 262.53897095 C2943.23202659 262.43715552 2920.19240085 262.12590521 2897.18164062 260.34570312 C2895.08242739 260.18422518 2892.98272762 260.03096243 2890.8828125 259.87890625 C2853.3815664 257.12245307 2814.97240036 252.50231966 2780.11328125 237.71484375 C2769.40221637 233.45201612 2758.20136174 230.96581699 2746.99624634 228.4133606 C2704.31557948 218.62979674 2660.63022649 207.47119523 2621.125 188.1875 C2620.05789795 187.66760498 2620.05789795 187.66760498 2618.96923828 187.13720703 C2616.89244401 186.11960174 2614.82003639 185.09377717 2612.75 184.0625 C2611.76821777 183.57342163 2611.76821777 183.57342163 2610.76660156 183.07446289 C2607.71721417 181.54091812 2604.72995414 179.96267715 2601.76171875 178.2734375 C2585.72267303 169.41521014 2568.16001542 167.9426786 2550.3125 170.625 C2544.559684 171.46085898 2538.87436996 172.28534435 2533.0625 172.5625 C2527.6204191 172.93620513 2522.5222077 174.2391797 2517.25 175.5625 C2487.8842654 182.85942424 2457.40796739 183.52254399 2427.29430056 183.32442474 C2423.74158417 183.30393606 2420.18884087 183.29734798 2416.63607788 183.28955078 C2407.67399248 183.267707 2398.71201499 183.22851402 2389.75 183.1875 C2380.01560899 183.14312634 2370.28125909 183.10215929 2360.54678667 183.08066368 C2356.35574382 183.07082749 2352.16490256 183.05131651 2347.97394013 183.02380371 C2344.74778765 183.00517161 2341.52160453 182.99981814 2338.29541016 182.9921875 C2336.59947472 182.97668854 2336.59947472 182.97668854 2334.86927795 182.96087646 C2319.36374647 182.55861744 2319.36374647 182.55861744 2306.125 189.1875 C2305.1520181 190.26053145 2304.21039327 191.36339191 2303.3125 192.5 C2299.93200371 196.52927841 2296.18711597 199.85723633 2292.125 203.1875 C2291.21105469 203.950625 2290.29710938 204.71375 2289.35546875 205.5 C2272.89501194 218.75118536 2254.70037177 227.17841136 2234.0625 231.5 C2233.30855957 231.65968262 2232.55461914 231.81936523 2231.77783203 231.98388672 C2226.78660388 232.9374568 2221.89974636 233.33053138 2216.82421875 233.5703125 C2206.73904859 234.08666407 2196.91705673 235.92441744 2187 237.75 C2186.02112823 237.92767914 2185.04225647 238.10535828 2184.03372192 238.28842163 C2140.17054561 246.25181802 2096.97149481 256.51703204 2054.07666016 268.65942383 C2030.46329588 275.31896171 2006.16913022 278.38815322 1983.4375 267.0625 C1976.75170204 263.23848901 1970.61475506 258.59812345 1965.125 253.1875 C1965.125 252.5275 1965.125 251.8675 1965.125 251.1875 C1964.42133301 250.92662598 1963.71766602 250.66575195 1962.99267578 250.39697266 C1959.90285599 249.09380841 1957.13049972 247.53981745 1954.2421875 245.8359375 C1953.67935562 245.50513687 1953.11652374 245.17433624 1952.53663635 244.83351135 C1950.6891213 243.74647915 1948.844585 242.6544955 1947 241.5625 C1945.69687044 240.79470705 1944.39356359 240.02721493 1943.09008789 239.26000977 C1936.78158171 235.54386162 1930.48422734 231.80904093 1924.19140625 228.06640625 C1909.35325028 219.2420433 1894.43679583 210.57733308 1879.421875 202.05859375 C1876.3104002 200.2927212 1873.20178874 198.52191098 1870.09375 196.75 C1851.9701805 186.4370193 1833.7690896 176.17345779 1814.98828125 167.09472656 C1813.00461832 166.12888649 1811.03398414 165.13887358 1809.0625 164.1484375 C1807.72966167 163.49378291 1806.39634451 162.84010209 1805.0625 162.1875 C1803.89589844 161.61 1802.72929687 161.0325 1801.52734375 160.4375 C1792.33276831 157.05946999 1781.32039886 160.52487816 1772.48974609 163.95410156 C1766.72924502 166.95864951 1764.30105718 172.63716607 1761.34423828 178.14550781 C1759.17451203 181.77938654 1756.37732849 184.85587909 1753.5625 188 C1752.72211182 188.94637329 1752.72211182 188.94637329 1751.86474609 189.91186523 C1750.77999872 191.12745328 1749.69190608 192.34006642 1748.60009766 193.54931641 C1747.32789343 194.96217479 1746.07423252 196.39169023 1744.82421875 197.82421875 C1728.61817955 216.28872669 1710.91898071 232.99131973 1687.5625 241.75 C1682.64743834 243.68444194 1680.33479875 245.84722135 1677.12890625 249.94921875 C1668.74996917 259.30814847 1656.39927456 265.11620367 1645.125 270.1875 C1643.99191406 270.69796875 1642.85882812 271.2084375 1641.69140625 271.734375 C1584.89069808 295.71832896 1518.06263225 303.36977177 1457.125 308.1875 C1455.95042236 308.2817627 1454.77584473 308.37602539 1453.56567383 308.47314453 C1443.85163034 309.19156092 1434.17372159 309.42992167 1424.4375 309.4375 C1423.64819092 309.43817474 1422.85888184 309.43884949 1422.0456543 309.43954468 C1409.82837854 309.423024 1398.09052977 308.83492558 1386.125 306.1875 C1385.32320312 306.02121094 1384.52140625 305.85492188 1383.6953125 305.68359375 C1367.38739042 302.2543578 1352.37694914 296.29370384 1337.4375 289 C1328.80643413 284.78716253 1319.93985487 281.24084385 1311 277.75 C1309.93224838 277.33260056 1309.93224838 277.33260056 1308.84292603 276.9067688 C1302.72228381 274.51639782 1296.59576096 272.14131792 1290.46582031 269.77490234 C1265.30845586 260.04246511 1245.10920798 248.94973444 1225.50952148 230.21704102 C1218.21288991 223.27596358 1210.27342607 217.39395095 1202.04907227 211.59912109 C1193.41431966 205.51242778 1185.23544338 198.95405582 1177.125 192.1875 C1176.53219238 191.69523926 1175.93938477 191.20297852 1175.32861328 190.69580078 C1166.56653555 183.39695295 1158.20949472 175.69935236 1149.9375 167.8515625 C1148.94363281 166.92778809 1148.94363281 166.92778809 1147.9296875 165.98535156 C1146.125 164.1875 1146.125 164.1875 1144.8203125 162.41308594 C1142.50453754 159.39430786 1140.89204073 158.33216986 1137.09472656 157.6159668 C1133.82552352 157.3750943 1130.59688232 157.24625473 1127.32104492 157.21368408 C1125.07713144 157.18692925 1122.83824474 157.11660285 1120.59570312 157.03466797 C1111.26785852 156.70339305 1101.93511163 156.53379796 1092.60328674 156.35606384 C1087.41159752 156.25273275 1082.23046011 156.07562263 1077.04296875 155.84375 C1064.69517228 155.38325545 1055.37236395 155.49546327 1045.14257812 162.78320312 C1042.75724738 164.44346721 1040.30340338 165.96152931 1037.828125 167.484375 C1015.69744141 181.15660588 995.47430217 196.33507349 978.6875 216.40625 C975.03812343 220.5665393 971.26461181 223.96805964 966.64453125 227.015625 C965.5757373 227.72460938 964.50694336 228.43359375 963.40576172 229.1640625 C962.24983395 229.92211822 961.0937425 230.67992442 959.9375 231.4375 C958.7342692 232.23136393 957.53131136 233.02564172 956.32861328 233.8203125 C953.8384708 235.4639203 951.3457864 237.10357144 948.85107422 238.74023438 C945.85069535 240.70908367 942.8563725 242.68687806 939.8644104 244.66848755 C873.85735174 288.37179123 873.85735174 288.37179123 833.3125 281 C820.59650226 278.08845632 808.51068022 272.85858502 797.6875 265.5390625 C791.50703461 262.27924386 785.80190658 263.31346909 779.3125 264.75 C778.46228271 264.92837402 777.61206543 265.10674805 776.73608398 265.29052734 C768.29481237 267.08679973 759.88897446 269.06002031 751.4987793 271.08032227 C729.0334423 276.40878587 704.38948144 278.50321108 682.125 271.1875 C681.46902832 270.97319336 680.81305664 270.75888672 680.13720703 270.53808594 C666.00470465 265.74231951 654.3740657 257.83408949 643.125 248.1875 C641.53070742 246.83506914 639.93325751 245.48659574 638.33227539 244.14208984 C636.83453053 242.88353121 635.34285785 241.61775667 633.8515625 240.3515625 C629.00342322 236.50361241 625.79343527 234.82972408 619.53125 234.5625 C617.613125 234.46195312 617.613125 234.46195312 615.65625 234.359375 C614.312561 234.30067014 612.96880929 234.24338375 611.625 234.1875 C598.90719743 233.63235782 586.54075393 232.62463294 575.0625 226.6875 C574.39476562 226.34638184 573.72703125 226.00526367 573.0390625 225.65380859 C562.40172304 219.93089962 551.55325814 210.04401629 546.125 199.1875 C543.24347621 198.66495952 540.40154886 198.24601498 537.5 197.875 C519.46150102 195.26637117 504.5705393 189.10259973 491.5 176.2265625 C488.16556844 173.36377751 485.26995906 173.08326986 480.97544861 172.93939209 C480.15599258 172.91055939 479.33653656 172.88172668 478.49224854 172.85202026 C477.60140564 172.82576569 476.71056274 172.79951111 475.79272461 172.77246094 C474.84730301 172.74179535 473.90188141 172.71112976 472.92781067 172.67953491 C464.17548797 172.4105066 455.42118311 172.24877917 446.6657629 172.12093735 C440.79533667 172.03333657 434.93063364 171.91001867 429.06323242 171.69921875 C402.50278486 169.29192594 402.50278486 169.29192594 378.26391602 177.28613281 C374.21006273 181.14466039 371.01676396 185.48621374 367.83566284 190.07214355 C363.49324585 195.44185146 356.60156066 196.76572432 350.1875 198.4375 C348.66771927 198.88399384 347.14953999 199.33596652 345.6328125 199.79272461 C342.30489255 200.78225183 338.96876524 201.73159105 335.62158203 202.65380859 C329.64779088 204.30542517 323.71431297 206.08465596 317.77734375 207.86328125 C168.97077711 252.18489461 168.97077711 252.18489461 119.80232239 236.44390869 C112.11607797 234.02412182 105.06016764 233.8554265 97.05078125 234.03515625 C95.71479929 234.05097616 94.37879244 234.06480356 93.04277039 234.07676697 C87.43371968 234.13107207 81.82545619 234.22548799 76.21704102 234.32446289 C52.7875432 234.72189595 32.3967327 234.59989977 14.2734375 217.5234375 C0.25998168 202.28698917 -6.74890828 182.05468737 -14.21438789 163.12481594 C-16.0651909 158.43255909 -17.94277768 153.7516514 -19.83129883 149.07446289 C-28.87419306 126.62608043 -28.87419306 126.62608043 -32.3125 115.80859375 C-38.92353176 95.51051956 -49.078744 86.54659018 -67.56982422 76.94726562 C-70.59593623 75.33608116 -73.42839729 73.57746859 -76.30078125 71.7109375 C-83.50999671 67.35132803 -91.11177268 68.85152799 -98.96875 70.67285156 C-132.05861863 79.42376365 -162.91212347 99.65287417 -191.875 117.1875 C-192.94717773 117.83444824 -194.01935547 118.48139648 -195.12402344 119.14794922 C-212.65307616 129.7458578 -229.80314192 140.87434969 -246.875 152.1875 C-247.75655762 152.77015625 -248.63811523 153.3528125 -249.54638672 153.953125 C-287.54140971 179.07071844 -324.79480313 205.30945719 -361.42236328 232.37744141 C-363.98604664 234.269453 -366.55313697 236.156762 -369.12109375 238.04296875 C-369.97968994 238.67404541 -370.83828613 239.30512207 -371.72290039 239.95532227 C-373.36346664 241.16098234 -375.00455002 242.36593918 -376.64624023 243.57006836 C-377.38946533 244.11671143 -378.13269043 244.66335449 -378.8984375 245.2265625 C-379.59163086 245.73606445 -380.28482422 246.24556641 -380.99902344 246.77050781 C-382.61490851 247.99104359 -384.1768153 249.2824515 -385.7265625 250.5859375 C-387.875 252.1875 -387.875 252.1875 -390.875 252.1875 C-392.27856445 250.72900391 -392.27856445 250.72900391 -393.73828125 248.6640625 C-394.56295898 247.51744141 -394.56295898 247.51744141 -395.40429688 246.34765625 C-395.99275391 245.51105469 -396.58121094 244.67445313 -397.1875 243.8125 C-398.45228386 242.05314477 -399.71926659 240.29536851 -400.98828125 238.5390625 C-401.63490723 237.64219727 -402.2815332 236.74533203 -402.94775391 235.82128906 C-405.83614814 231.87398769 -408.84864063 228.02942233 -411.875 224.1875 C-417.25645354 217.33154172 -422.45852795 210.36249422 -427.60083008 203.32592773 C-433.39629848 195.42182747 -439.41126401 187.69459647 -445.47143555 179.99243164 C-445.93461182 179.3968042 -446.39778809 178.80117676 -446.875 178.1875 C-447.73702026 177.20801392 -447.73702026 177.20801392 -448.61645508 176.20874023 C-449.875 174.1875 -449.875 174.1875 -449.78662109 172.12255859 C-448.64993536 169.70976504 -447.45923594 168.77027259 -445.2890625 167.2265625 C-444.53294678 166.67991943 -443.77683105 166.13327637 -442.99780273 165.57006836 C-442.17352783 164.9900708 -441.34925293 164.41007324 -440.5 163.8125 C-438.75367929 162.55630504 -437.00759192 161.29978564 -435.26171875 160.04296875 C-434.36501465 159.40278809 -433.46831055 158.76260742 -432.54443359 158.10302734 C-428.43473465 155.15399699 -424.37617865 152.13693284 -420.3125 149.125 C-411.94608066 142.95226217 -403.52555488 136.85666302 -395.08691406 130.78320312 C-392.90567673 129.20963058 -390.72943323 127.62940406 -388.5546875 126.046875 C-376.45181226 117.24910982 -364.19953002 108.67163525 -351.875 100.1875 C-351.20782959 99.72813049 -350.54065918 99.26876099 -349.85327148 98.79547119 C-338.10947174 90.71710688 -326.29548056 82.74830977 -314.43115234 74.84814453 C-311.74330921 73.05804394 -309.05713203 71.26546356 -306.37109375 69.47265625 C-170.10597674 -21.39126186 -170.10597674 -21.39126186 -98.875 -32.8125 C-97.38625366 -33.08078613 -97.38625366 -33.08078613 -95.86743164 -33.35449219 C-58.75511249 -39.03473293 -29.34878908 -19.79920559 0 0 Z " fill="#FFFFFF" transform="translate(449.875,33.8125)"/>
</svg>